<?xml version="1.0" standalone="no"?>
<!DOCTYPE svg PUBLIC "-//W3C//DTD SVG 20010904//EN"
 "http://www.w3.org/TR/2001/REC-SVG-20010904/DTD/svg10.dtd">
<svg version="1.0" xmlns="http://www.w3.org/2000/svg"
 width="500.000000pt" height="500.000000pt" viewBox="0 0 500.000000 500.000000"
 preserveAspectRatio="xMidYMid meet">

<g transform="translate(0.000000,500.000000) scale(0.100000,-0.100000)"
fill="#000000" stroke="none">
<path d="M0 2500 l0 -2500 2500 0 2500 0 0 2500 0 2500 -2500 0 -2500 0 0
-2500z m2435 893 c11 -18 25 -32 32 -33 6 0 33 -18 60 -40 83 -69 369 -257
448 -295 87 -41 210 -75 372 -104 169 -30 193 -48 193 -141 0 -115 -101 -216
-259 -258 -47 -13 -174 -16 -760 -19 l-703 -4 -24 22 c-19 17 -24 33 -24 69 0
25 7 55 15 67 13 19 12 25 -13 69 -25 45 -27 58 -26 149 0 88 4 113 37 208 20
59 37 117 37 128 0 102 124 98 201 -7 57 -78 76 -88 155 -81 36 2 70 9 75 14
5 5 1 25 -11 48 -33 64 -27 88 37 158 31 34 64 68 73 74 26 21 63 11 85 -24z
m501 -1113 c20 0 64 -45 64 -65 0 -21 -66 -21 -78 1 -11 19 -46 15 -50 -6 -2
-10 19 -26 60 -45 61 -29 63 -31 66 -71 3 -35 -1 -45 -24 -63 -39 -31 -117
-29 -149 4 -14 13 -25 31 -25 40 0 21 58 20 81 -1 21 -19 49 -12 49 11 0 9
-20 24 -47 36 -27 11 -56 28 -65 36 -24 21 -23 75 1 97 22 20 70 36 89 30 8
-2 20 -4 28 -4z m592 -17 c84 -52 80 -193 -7 -238 -40 -20 -106 -19 -143 3
-34 19 -68 78 -68 118 0 30 25 88 46 105 44 36 124 42 172 12z m438 17 c20 0
64 -45 64 -65 0 -21 -66 -21 -78 1 -11 19 -46 15 -50 -6 -2 -10 19 -26 60 -45
61 -29 63 -31 66 -71 3 -35 -1 -45 -24 -63 -39 -31 -117 -29 -149 4 -14 13
-25 31 -25 40 0 21 58 20 81 -1 21 -19 49 -12 49 11 0 9 -20 24 -47 36 -27 11
-56 28 -65 36 -24 21 -23 75 1 97 22 20 70 36 89 30 8 -2 20 -4 28 -4z m-2646
-57 l0 -57 42 57 c38 52 45 57 80 57 21 0 38 -2 38 -4 0 -2 -22 -31 -50 -66
l-49 -62 55 -69 55 -69 -43 0 c-40 1 -46 4 -85 57 l-43 57 0 -57 0 -57 -35 0
-35 0 0 135 0 135 35 0 35 0 0 -57z m374 15 c9 -24 31 -85 50 -135 l34 -93
-38 0 c-32 0 -39 4 -44 25 -6 22 -11 25 -56 25 -45 0 -50 -3 -56 -25 -5 -21
-12 -25 -44 -25 l-38 0 44 123 c25 67 46 128 49 135 2 7 21 12 44 12 37 0 40
-2 55 -42z m287 27 c93 -49 89 -201 -6 -241 -19 -8 -64 -14 -100 -14 l-65 0 0
135 0 135 70 0 c45 0 82 -6 101 -15z m307 -106 c24 -67 46 -128 49 -135 4 -10
-4 -14 -31 -14 -30 0 -38 5 -46 25 -8 22 -16 25 -55 25 -39 0 -47 -4 -57 -25
-9 -20 -19 -25 -46 -25 -23 0 -33 4 -30 13 3 6 25 67 49 134 l44 123 40 0 40
0 43 -121z m197 29 l38 -91 36 91 36 92 43 0 42 0 0 -135 0 -135 -35 0 -35 0
-1 78 0 77 -28 -75 c-26 -68 -31 -75 -58 -78 -27 -3 -30 0 -53 65 l-25 68 -3
-67 -3 -68 -34 0 -35 0 0 135 0 135 39 0 38 0 38 -92z m625 42 l0 -50 50 0 50
0 0 50 0 50 35 0 35 0 0 -135 0 -135 -35 0 -35 0 0 55 0 55 -50 0 -50 0 0 -55
0 -55 -35 0 -35 0 0 135 0 135 35 0 35 0 0 -50z m690 25 c0 -23 -3 -25 -50
-25 -49 0 -50 -1 -50 -30 0 -28 2 -30 40 -30 36 0 40 -2 40 -25 0 -22 -4 -25
-40 -25 -38 0 -40 -2 -40 -30 0 -29 1 -30 50 -30 47 0 50 -2 50 -25 0 -25 -1
-25 -85 -25 l-85 0 0 135 0 135 85 0 c84 0 85 0 85 -25z m-2861 -397 c0 -13
-3 -17 -6 -10 -4 10 -8 10 -19 1 -11 -9 -14 -7 -14 10 0 14 6 21 20 21 14 0
20 -6 19 -22z m3408 -10 c-3 -7 -5 -2 -5 12 0 14 2 19 5 13 2 -7 2 -19 0 -25z
m33 11 c0 -11 -4 -17 -10 -14 -5 3 -10 13 -10 21 0 8 5 14 10 14 6 0 10 -9 10
-21z m-3340 -14 c10 -12 10 -15 -2 -15 -8 0 -19 5 -25 11 -13 13 -33 4 -33
-14 0 -7 15 -19 33 -27 35 -16 43 -46 16 -63 -21 -13 -69 -1 -69 18 0 19 7 19
26 0 16 -16 44 -10 44 10 0 7 -14 18 -30 24 -53 18 -54 71 -2 71 16 0 35 -7
42 -15z m103 8 c-21 -4 -23 -10 -23 -64 0 -33 -4 -59 -10 -59 -6 0 -10 26 -10
59 0 48 -3 60 -17 64 -10 3 5 5 32 4 28 0 40 -2 28 -4z m85 0 c-22 -3 -28 -10
-28 -29 0 -18 6 -24 23 -25 l22 -2 -22 -4 c-29 -6 -32 -43 -4 -43 11 0 23 -4
26 -10 4 -6 -8 -10 -29 -10 l-36 0 0 65 0 65 38 -1 c30 -2 32 -3 10 -6z m127
-28 c0 -25 -5 -32 -32 -40 -25 -7 -33 -15 -33 -32 0 -13 -4 -23 -10 -23 -6 0
-10 29 -10 66 l0 65 43 -3 c39 -3 42 -5 42 -33z m95 -30 c0 -37 -4 -65 -10
-65 -6 0 -10 28 -10 65 0 37 4 65 10 65 6 0 10 -28 10 -65z m85 18 l30 -48 3
48 c5 71 22 57 22 -18 0 -80 -13 -84 -55 -17 l-30 47 -3 -47 c-5 -72 -22 -58
-22 17 0 80 13 84 55 18z m148 40 c-21 -4 -23 -10 -23 -64 0 -33 -4 -59 -10
-59 -6 0 -10 26 -10 59 0 48 -3 60 -17 64 -10 3 5 5 32 4 28 0 40 -2 28 -4z
m139 -10 c22 -20 23 -70 1 -95 -35 -39 -113 -8 -113 45 0 58 69 89 112 50z
m173 6 c11 -17 -3 -23 -20 -9 -16 13 -45 7 -45 -10 0 -6 16 -18 36 -26 30 -12
35 -19 32 -42 -2 -22 -9 -28 -34 -30 -31 -3 -64 20 -46 32 6 3 15 -1 22 -9 6
-7 18 -11 26 -8 24 9 16 33 -15 44 -34 12 -46 35 -30 55 14 17 65 19 74 3z
m98 4 c-21 -4 -23 -10 -23 -64 0 -33 -4 -59 -10 -59 -6 0 -10 26 -10 59 0 48
-3 60 -17 64 -10 3 5 5 32 4 28 0 40 -2 28 -4z m59 -18 c6 -14 14 -25 18 -25
4 0 12 11 18 25 6 14 16 25 22 25 6 0 1 -18 -10 -40 -11 -21 -20 -51 -20 -65
0 -14 -4 -25 -10 -25 -5 0 -10 11 -10 25 0 14 -9 44 -20 65 -11 22 -16 40 -10
40 6 0 16 -11 22 -25z m108 -30 c0 -48 3 -55 19 -55 11 0 23 -4 26 -10 4 -6
-8 -10 -29 -10 l-36 0 0 65 c0 37 4 65 10 65 6 0 10 -25 10 -55z m112 48 c-27
-4 -33 -8 -30 -26 2 -13 13 -24 28 -28 l25 -7 -27 -1 c-38 -1 -41 -41 -4 -41
14 0 28 -4 31 -10 4 -6 -10 -10 -34 -10 l-41 0 0 65 0 65 43 -2 c37 -1 38 -2
9 -5z m122 -41 c5 -23 12 -42 15 -42 4 0 12 21 19 46 15 55 33 54 46 -4 5 -23
12 -42 16 -42 4 0 11 19 16 42 5 23 14 43 21 45 8 3 6 -15 -6 -58 -10 -35 -22
-64 -28 -66 -6 -2 -17 13 -23 34 -19 59 -22 60 -37 9 -8 -26 -19 -46 -25 -44
-6 2 -19 32 -29 67 -12 43 -14 61 -6 58 7 -2 16 -22 21 -45z m186 -17 c0 -37
-4 -65 -10 -65 -6 0 -10 28 -10 65 0 37 4 65 10 65 6 0 10 -28 10 -65z m88 58
c-15 -4 -18 -16 -18 -64 0 -33 -4 -59 -10 -59 -6 0 -10 26 -10 59 0 54 -2 60
-22 64 -13 2 0 4 27 4 28 1 42 -1 33 -4z m52 -18 c0 -22 4 -25 35 -25 31 0 35
3 35 25 0 14 5 25 10 25 6 0 10 -28 10 -65 0 -37 -4 -65 -10 -65 -5 0 -10 14
-10 30 0 28 -3 30 -35 30 -32 0 -35 -2 -35 -30 0 -16 -4 -30 -10 -30 -6 0 -10
28 -10 65 0 37 4 65 10 65 6 0 10 -11 10 -25z m190 -1 l0 -27 21 27 c11 14 28
26 37 26 12 0 7 -9 -16 -33 l-32 -33 32 -32 c20 -20 27 -32 18 -32 -8 0 -24
12 -37 28 l-22 27 -1 -27 c0 -16 -4 -28 -10 -28 -6 0 -10 28 -10 65 0 37 4 65
10 65 6 0 10 -12 10 -26z m177 -42 c12 -34 18 -62 12 -62 -5 0 -12 7 -15 15
-4 8 -18 15 -34 15 -16 0 -30 -7 -34 -15 -3 -8 -10 -15 -15 -15 -5 0 0 24 10
53 11 28 22 58 24 65 10 27 30 4 52 -56z m135 51 c10 -9 18 -30 18 -49 0 -40
-29 -64 -77 -64 l-33 0 0 65 0 65 37 0 c20 0 45 -7 55 -17z m125 -51 c12 -34
18 -62 12 -62 -5 0 -12 7 -15 15 -4 8 -18 15 -34 15 -16 0 -30 -7 -34 -15 -3
-8 -10 -15 -15 -15 -5 0 0 24 10 53 11 28 22 58 24 65 10 27 30 4 52 -56z m87
16 l23 -53 23 53 c12 28 26 52 31 52 5 0 8 -30 7 -67 -1 -64 -1 -65 -8 -23
l-7 45 -18 -42 c-10 -24 -22 -43 -27 -43 -5 0 -18 19 -28 43 l-20 42 0 -42 c0
-24 -4 -43 -10 -43 -6 0 -10 28 -10 65 0 37 4 65 10 65 6 0 21 -24 34 -52z
m251 41 c11 -17 -3 -23 -20 -9 -16 13 -45 7 -45 -10 0 -6 16 -18 35 -26 36
-15 45 -40 23 -62 -17 -17 -53 -15 -68 3 -18 21 -5 31 15 12 17 -18 45 -12 45
9 0 7 -11 16 -25 20 -33 8 -48 29 -40 54 5 15 15 20 40 20 19 0 37 -5 40 -11z
m45 -14 c0 -22 4 -25 35 -25 31 0 35 3 35 25 0 14 5 25 10 25 6 0 10 -28 10
-65 0 -37 -4 -65 -10 -65 -5 0 -10 14 -10 30 0 28 -3 30 -35 30 -32 0 -35 -2
-35 -30 0 -16 -4 -30 -10 -30 -6 0 -10 28 -10 65 0 37 4 65 10 65 6 0 10 -11
10 -25z m222 8 c22 -20 23 -70 1 -95 -35 -39 -113 -8 -113 45 0 58 69 89 112
50z m96 10 c-22 -3 -28 -10 -28 -29 0 -18 6 -24 23 -25 l22 -2 -22 -4 c-29 -6
-32 -43 -4 -43 11 0 23 -4 26 -10 4 -6 -8 -10 -29 -10 l-36 0 0 65 0 65 38 -1
c30 -2 32 -3 10 -6z m122 -8 c10 -12 10 -15 -2 -15 -8 0 -19 5 -25 11 -13 13
-33 4 -33 -14 0 -7 15 -19 33 -27 35 -16 43 -46 16 -63 -21 -13 -69 -1 -69 18
0 19 7 19 26 0 16 -16 44 -10 44 10 0 7 -14 18 -30 24 -53 18 -54 71 -2 71 16
0 35 -7 42 -15z m50 -105 c0 -5 -4 -10 -10 -10 -5 0 -10 5 -10 10 0 6 5 10 10
10 6 0 10 -4 10 -10z"/>
<path d="M2323 3347 c-74 -78 -78 -88 -53 -143 17 -40 22 -45 35 -34 8 7 23
38 31 69 11 37 28 67 50 87 30 29 32 33 18 53 -8 11 -19 21 -23 21 -5 0 -31
-24 -58 -53z"/>
<path d="M2435 3320 c-30 -12 -51 -40 -69 -96 -25 -78 -85 -125 -177 -138 -63
-9 -127 13 -159 55 -58 76 -97 109 -128 109 -34 0 -52 -22 -52 -64 0 -19 7
-27 35 -36 65 -21 94 -76 130 -242 9 -43 19 -78 23 -78 4 0 50 -7 102 -15 130
-19 215 -47 289 -95 l63 -41 402 3 c438 3 431 2 529 66 20 14 41 22 44 18 29
-28 -110 -102 -215 -114 -40 -5 -377 -4 -749 1 -643 8 -678 8 -690 -9 -18 -24
-16 -79 3 -98 14 -14 83 -16 617 -16 775 0 859 7 971 81 62 41 98 96 104 158
6 69 -20 94 -114 110 -38 6 -124 23 -191 37 l-123 27 -38 -26 c-73 -48 -164
-88 -213 -94 -64 -8 -103 10 -139 61 -45 67 -98 108 -218 172 -62 32 -112 65
-112 73 0 20 28 10 156 -60 87 -47 126 -75 157 -112 94 -111 93 -110 143 -103
53 7 108 30 178 73 l50 31 -70 32 -69 31 -53 -21 c-62 -23 -82 -25 -82 -7 0 7
23 21 51 31 l50 18 -33 21 c-32 19 -34 19 -78 2 -69 -27 -90 -30 -90 -13 0 9
21 23 51 35 l51 19 -28 19 c-28 18 -30 18 -88 -3 -32 -12 -63 -19 -67 -16 -18
11 -8 23 36 40 51 19 54 26 22 43 -19 10 -32 9 -80 -9 -31 -12 -62 -18 -67
-15 -17 11 5 30 50 45 l41 14 -43 38 c-58 51 -89 67 -113 58z"/>
<path d="M1824 3094 c-22 -51 -54 -181 -54 -216 0 -24 4 -28 28 -29 15 0 65
-4 110 -8 l84 -6 -7 40 c-19 119 -38 179 -69 211 -17 18 -41 35 -54 39 -19 5
-25 1 -38 -31z"/>
<path d="M1780 2801 c0 -8 9 -34 20 -57 26 -54 28 -54 355 -54 243 0 258 1
236 16 -66 47 -262 87 -493 102 -100 6 -118 5 -118 -7z"/>
<path d="M3407 2207 c-10 -6 -20 -28 -23 -47 -12 -72 67 -119 116 -70 24 24
26 77 4 108 -17 25 -69 30 -97 9z"/>
<path d="M1626 2166 c-3 -13 -9 -31 -12 -40 -5 -13 1 -16 26 -16 25 0 31 3 26
16 -3 9 -9 27 -12 40 -3 13 -10 24 -14 24 -4 0 -11 -11 -14 -24z"/>
<path d="M1870 2145 l0 -75 35 0 c22 0 43 8 55 20 12 12 20 33 20 55 0 22 -8
43 -20 55 -12 12 -33 20 -55 20 l-35 0 0 -75z"/>
<path d="M2187 2157 l-16 -47 30 0 c32 0 34 7 15 60 l-13 34 -16 -47z"/>
<path d="M1290 1826 c0 -21 5 -26 26 -26 21 0 25 4 22 23 -2 14 -11 23 -25 25
-19 3 -23 -1 -23 -22z"/>
<path d="M1745 1834 c-36 -37 5 -102 53 -83 30 11 32 73 3 89 -27 14 -37 13
-56 -6z"/>
<path d="M3141 1807 c-14 -37 -14 -37 9 -37 21 0 24 12 10 45 -7 19 -9 18 -19
-8z"/>
<path d="M3250 1800 c0 -46 2 -50 23 -50 31 0 47 18 47 52 0 28 -23 48 -54 48
-12 0 -16 -11 -16 -50z"/>
<path d="M3401 1807 c-14 -37 -14 -37 9 -37 21 0 24 12 10 45 -7 19 -9 18 -19
-8z"/>
<path d="M3975 1834 c-36 -37 5 -102 53 -83 30 11 32 73 3 89 -27 14 -37 13
-56 -6z"/>
</g>
</svg>
